# xmcd CD database file
#
# Track frame offsets:
#	150
#	11726
#	28543
#	42649
#	57156
#	71904
#	84677
#	97617
#	114221
#	125264
#	140149
#	152433
#	164225
#	178438
#	195851
#	211408
#	226295
#	243359
#	257110
#	267781
#	282619
#	295630
#	312330
#	324098
#	336905
#	347986
#
# Disc length: 4780 seconds
#
# Revision: 0
# Processed by: cddbd v1.5.1PL0 Copyright (c) Steve Scherf et al.
# Submitted via: CDex 1.51
#
DISCID=8312aa1a
DTITLE=cadetes de linares - leyendas de la musica norteña
DYEAR=2004
DGENRE=norteño
TTITLE0=desprecio
TTITLE1=los tequileros
TTITLE2=modesta ayala
TTITLE3=el chubasco
TTITLE4=hace un año
TTITLE5=la muerte de juan bedolla
TTITLE6=los barandales del puente
TTITLE7=maquina 501
TTITLE8=prisionero de tus brazos
TTITLE9=eleazar del fierro
TTITLE10=la valentina
TTITLE11=despedida con mariachi
TTITLE12=en tu boda
TTITLE13=el mas buscado
TTITLE14=los calzones
TTITLE15=un caballo fiel
TTITLE16=la abogada blindada
TTITLE17=se vende esta casa
TTITLE18=un complejo
TTITLE19=la cosecha
TTITLE20=flecha envenenada
TTITLE21=corrido de cantú
TTITLE22=el hijo ingrato
TTITLE23=hermosisimo lucero
TTITLE24=es imposible
TTITLE25=las flores que me diste
EXTD=YEAR: 2004
EXTT0=
EXTT1=
EXTT2=
EXTT3=
EXTT4=
EXTT5=
EXTT6=
EXTT7=
EXTT8=
EXTT9=
EXTT10=
EXTT11=
EXTT12=
EXTT13=
EXTT14=
EXTT15=
EXTT16=
EXTT17=
EXTT18=
EXTT19=
EXTT20=
EXTT21=
EXTT22=
EXTT23=
EXTT24=
EXTT25=
PLAYORDER=
